<svg xmlns="http://www.w3.org/2000/svg" viewBox="0 0 1400 500" width="1400" height="500">
  <defs>
    <linearGradient id="bg3" x1="0%" y1="0%" x2="100%" y2="100%">
      <stop offset="0%" style="stop-color:#E65100;stop-opacity:1"/>
      <stop offset="50%" style="stop-color:#F57C00;stop-opacity:1"/>
      <stop offset="100%" style="stop-color:#FF9800;stop-opacity:1"/>
    </linearGradient>
  </defs>
  <!-- Background -->
  <rect width="1400" height="500" fill="url(#bg3)"/>
  <!-- Conference/training room scene -->
  <!-- Back wall -->
  <rect x="200" y="100" width="1000" height="300" fill="#FFF3E0" opacity="0.15"/>
  <!-- Whiteboard -->
  <rect x="550" y="120" width="300" height="180" fill="white" opacity="0.2" rx="5"/>
  <rect x="560" y="130" width="280" height="160" fill="#FFF8E1" opacity="0.15" rx="3"/>
  <!-- Text on board -->
  <line x1="580" y1="160" x2="780" y2="160" stroke="white" stroke-width="2" opacity="0.3"/>
  <line x1="580" y1="185" x2="820" y2="185" stroke="white" stroke-width="2" opacity="0.3"/>
  <line x1="580" y1="210" x2="750" y2="210" stroke="white" stroke-width="2" opacity="0.3"/>
  <line x1="580" y1="235" x2="800" y2="235" stroke="white" stroke-width="2" opacity="0.3"/>
  <!-- PKK logo placeholder -->
  <circle cx="700" cy="160" r="20" fill="#E91E63" opacity="0.3"/>
  <text x="700" y="165" text-anchor="middle" font-family="Arial" font-size="12" fill="white" opacity="0.4" font-weight="bold">PKK</text>
  <!-- Tables (rows) -->
  <rect x="280" y="340" width="250" height="15" fill="#8D6E63" opacity="0.4" rx="3"/>
  <rect x="580" y="340" width="250" height="15" fill="#8D6E63" opacity="0.4" rx="3"/>
  <rect x="880" y="340" width="250" height="15" fill="#8D6E63" opacity="0.4" rx="3"/>
  <rect x="280" y="400" width="250" height="15" fill="#8D6E63" opacity="0.4" rx="3"/>
  <rect x="580" y="400" width="250" height="15" fill="#8D6E63" opacity="0.4" rx="3"/>
  <rect x="880" y="400" width="250" height="15" fill="#8D6E63" opacity="0.4" rx="3"/>
  <!-- People sitting (row 1) -->
  <circle cx="320" cy="320" r="11" fill="white" opacity="0.25"/>
  <rect x="313" y="331" width="14" height="12" fill="#E91E63" opacity="0.3" rx="3"/>
  <circle cx="380" cy="322" r="10" fill="white" opacity="0.2"/>
  <rect x="374" y="332" width="12" height="11" fill="#9C27B0" opacity="0.3" rx="3"/>
  <circle cx="440" cy="318" r="11" fill="white" opacity="0.25"/>
  <rect x="433" y="329" width="14" height="14" fill="#4CAF50" opacity="0.3" rx="3"/>
  <circle cx="500" cy="321" r="10" fill="white" opacity="0.22"/>
  <rect x="494" y="331" width="12" height="12" fill="#2196F3" opacity="0.3" rx="3"/>
  <circle cx="620" cy="320" r="11" fill="white" opacity="0.25"/>
  <rect x="613" y="331" width="14" height="12" fill="#FF5722" opacity="0.3" rx="3"/>
  <circle cx="680" cy="322" r="10" fill="white" opacity="0.2"/>
  <rect x="674" y="332" width="12" height="11" fill="#E91E63" opacity="0.3" rx="3"/>
  <circle cx="740" cy="318" r="11" fill="white" opacity="0.25"/>
  <rect x="733" y="329" width="14" height="14" fill="#009688" opacity="0.3" rx="3"/>
  <circle cx="800" cy="321" r="10" fill="white" opacity="0.22"/>
  <rect x="794" y="331" width="12" height="12" fill="#FF9800" opacity="0.3" rx="3"/>
  <circle cx="920" cy="320" r="11" fill="white" opacity="0.25"/>
  <rect x="913" y="331" width="14" height="12" fill="#673AB7" opacity="0.3" rx="3"/>
  <circle cx="980" cy="322" r="10" fill="white" opacity="0.2"/>
  <rect x="974" y="332" width="12" height="11" fill="#E91E63" opacity="0.3" rx="3"/>
  <circle cx="1040" cy="318" r="11" fill="white" opacity="0.25"/>
  <rect x="1033" y="329" width="14" height="14" fill="#00BCD4" opacity="0.3" rx="3"/>
  <!-- People sitting (row 2) -->
  <circle cx="320" cy="380" r="11" fill="white" opacity="0.2"/>
  <rect x="313" y="391" width="14" height="12" fill="#3F51B5" opacity="0.3" rx="3"/>
  <circle cx="380" cy="382" r="10" fill="white" opacity="0.18"/>
  <rect x="374" y="392" width="12" height="11" fill="#E91E63" opacity="0.3" rx="3"/>
  <circle cx="440" cy="378" r="11" fill="white" opacity="0.2"/>
  <rect x="433" y="389" width="14" height="14" fill="#F44336" opacity="0.3" rx="3"/>
  <circle cx="620" cy="380" r="11" fill="white" opacity="0.2"/>
  <rect x="613" y="391" width="14" height="12" fill="#8BC34A" opacity="0.3" rx="3"/>
  <circle cx="680" cy="382" r="10" fill="white" opacity="0.18"/>
  <rect x="674" y="392" width="12" height="11" fill="#E91E63" opacity="0.3" rx="3"/>
  <circle cx="920" cy="380" r="11" fill="white" opacity="0.2"/>
  <rect x="913" y="391" width="14" height="12" fill="#795548" opacity="0.3" rx="3"/>
  <circle cx="980" cy="382" r="10" fill="white" opacity="0.18"/>
  <rect x="974" y="392" width="12" height="11" fill="#E91E63" opacity="0.3" rx="3"/>
  <!-- Banner text -->
  <rect x="550" y="70" width="300" height="35" fill="#C0392B" opacity="0.4" rx="5"/>
  <text x="700" y="93" text-anchor="middle" font-family="Arial" font-size="14" fill="white" opacity="0.5" font-weight="bold">PELATIHAN KADER PKK</text>
  <!-- Floor -->
  <rect x="0" y="420" width="1400" height="80" fill="#5D4037" opacity="0.2"/>
</svg>
