<svg xmlns="http://www.w3.org/2000/svg" viewBox="0 0 200 200" width="200" height="200">
  <defs>
    <linearGradient id="bg" x1="0%" y1="0%" x2="100%" y2="100%">
      <stop offset="0%" style="stop-color:#FFFFFF;stop-opacity:1"/>
      <stop offset="100%" style="stop-color:#F5F5F5;stop-opacity:1"/>
    </linearGradient>
  </defs>
  <rect width="200" height="200" fill="url(#bg)" rx="10"/>
  <!-- Shield shape -->
  <path d="M100 25 L145 45 L145 100 C145 135 125 160 100 175 C75 160 55 135 55 100 L55 45 Z" fill="#C0392B" opacity="0.9"/>
  <path d="M100 30 L140 48 L140 100 C140 132 122 155 100 168 C78 155 60 132 60 100 L60 48 Z" fill="#E74C3C" opacity="0.3"/>
  <!-- Monas simplified -->
  <rect x="95" y="55" width="10" height="60" fill="white" rx="2"/>
  <polygon points="100,45 107,58 93,58" fill="#F39C12"/>
  <rect x="88" y="115" width="24" height="8" fill="white" rx="2"/>
  <rect x="85" y="123" width="30" height="5" fill="white" rx="1"/>
  <!-- Text -->
  <text x="100" y="150" text-anchor="middle" font-family="Arial,sans-serif" font-size="10" font-weight="bold" fill="#C0392B">PEMERINTAH PROVINSI</text>
  <text x="100" y="163" text-anchor="middle" font-family="Arial,sans-serif" font-size="12" font-weight="bold" fill="#C0392B">DKI JAKARTA</text>
</svg>
