<svg xmlns="http://www.w3.org/2000/svg" viewBox="0 0 400 200">
  <defs>
    <linearGradient id="bg" x1="0" y1="0" x2="1" y2="1"><stop offset="0%" stop-color="#F3E5F5"/><stop offset="100%" stop-color="#E1BEE7"/></linearGradient>
  </defs>
  <rect width="400" height="200" fill="url(#bg)" rx="12"/>
  <!-- Park / Trees -->
  <circle cx="120" cy="80" r="28" fill="#66BB6A" opacity=".7"/>
  <rect x="116" y="105" width="8" height="25" rx="2" fill="#5D4037"/>
  <circle cx="155" cy="90" r="20" fill="#81C784" opacity=".7"/>
  <rect x="151" y="108" width="8" height="22" rx="2" fill="#5D4037"/>
  <!-- Playground -->
  <rect x="200" y="80" width="5" height="60" rx="1" fill="#6A1B9A"/>
  <rect x="260" y="80" width="5" height="60" rx="1" fill="#6A1B9A"/>
  <path d="M205 90c20 15 35 15 55 0" fill="none" stroke="#6A1B9A" stroke-width="3"/>
  <circle cx="232" cy="100" r="6" fill="#CE93D8" stroke="#6A1B9A" stroke-width="1.5"/>
  <!-- Slide -->
  <line x1="300" y1="80" x2="300" y2="140" stroke="#6A1B9A" stroke-width="3"/>
  <line x1="300" y1="80" x2="345" y2="140" stroke="#CE93D8" stroke-width="4" stroke-linecap="round"/>
  <rect x="290" y="76" width="20" height="6" rx="2" fill="#6A1B9A"/>
  <!-- Children figures -->
  <circle cx="222" cy="125" r="7" fill="#FFF" stroke="#6A1B9A" stroke-width="1.5"/>
  <rect x="218" y="134" width="8" height="14" rx="3" fill="#CE93D8"/>
  <circle cx="248" cy="130" r="6" fill="#FFF" stroke="#6A1B9A" stroke-width="1.5"/>
  <rect x="244" y="138" width="8" height="12" rx="3" fill="#AB47BC"/>
  <!-- Banner -->
  <rect x="110" y="164" width="180" height="24" rx="12" fill="#6A1B9A"/>
  <text x="200" y="181" text-anchor="middle" font-family="Plus Jakarta Sans,sans-serif" font-weight="700" font-size="11" fill="#FFF">RPTRA Ramah Anak</text>
</svg>