<svg xmlns="http://www.w3.org/2000/svg" viewBox="0 0 400 200">
  <defs>
    <linearGradient id="bg" x1="0" y1="0" x2="1" y2="1"><stop offset="0%" stop-color="#FCE4EC"/><stop offset="100%" stop-color="#F8BBD0"/></linearGradient>
  </defs>
  <rect width="400" height="200" fill="url(#bg)" rx="12"/>
  <!-- Ondel-ondel figure -->
  <circle cx="160" cy="70" r="30" fill="#FFEB3B" stroke="#AD1457" stroke-width="2.5"/>
  <circle cx="150" cy="64" r="5" fill="#AD1457"/><circle cx="170" cy="64" r="5" fill="#AD1457"/>
  <path d="M148 80c6 6 18 6 24 0" fill="none" stroke="#AD1457" stroke-width="2.5"/>
  <rect x="145" y="100" width="30" height="45" rx="5" fill="#AD1457"/>
  <rect x="140" y="100" width="40" height="10" rx="3" fill="#E91E63"/>
  <!-- Music notes -->
  <text x="220" y="70" font-size="28" fill="#AD1457" opacity=".7">♪</text>
  <text x="250" y="55" font-size="22" fill="#AD1457" opacity=".5">♫</text>
  <!-- Mask -->
  <ellipse cx="280" cy="105" rx="28" ry="32" fill="#FFF" stroke="#AD1457" stroke-width="2"/>
  <circle cx="272" cy="97" r="4" fill="#AD1457"/><circle cx="290" cy="97" r="4" fill="#AD1457"/>
  <path d="M270 112c5 6 18 6 22 0" fill="none" stroke="#AD1457" stroke-width="2"/>
  <path d="M260 80l10-12M300 80l-10-12" stroke="#AD1457" stroke-width="2"/>
  <!-- Banner -->
  <rect x="110" y="162" width="180" height="26" rx="13" fill="#AD1457"/>
  <text x="200" y="180" text-anchor="middle" font-family="Plus Jakarta Sans,sans-serif" font-weight="700" font-size="12" fill="#FFF">Budaya Betawi Lestari</text>
</svg>