<svg xmlns="http://www.w3.org/2000/svg" viewBox="0 0 400 200">
  <defs>
    <linearGradient id="bg" x1="0" y1="0" x2="1" y2="1"><stop offset="0%" stop-color="#E8F5E9"/><stop offset="100%" stop-color="#C8E6C9"/></linearGradient>
  </defs>
  <rect width="400" height="200" fill="url(#bg)" rx="12"/>
  <!-- Hospital / Puskesmas -->
  <rect x="140" y="65" width="120" height="85" rx="5" fill="#FFF" stroke="#2E7D32" stroke-width="2"/>
  <rect x="140" y="55" width="120" height="18" rx="4" fill="#2E7D32"/>
  <text x="200" y="68" text-anchor="middle" font-family="Plus Jakarta Sans,sans-serif" font-weight="700" font-size="9" fill="#FFF">PUSKESMAS</text>
  <!-- Cross -->
  <rect x="190" y="82" width="20" height="35" rx="2" fill="#2E7D32" opacity=".8"/>
  <rect x="183" y="92" width="34" height="15" rx="2" fill="#2E7D32" opacity=".8"/>
  <!-- Door -->
  <rect x="187" y="125" width="26" height="25" rx="3" fill="#A5D6A7" stroke="#2E7D32" stroke-width="1.5"/>
  <!-- Heart pulse -->
  <path d="M290 90l8-15 8 30 8-20 8 10 8-5" fill="none" stroke="#C0392B" stroke-width="2.5"/>
  <!-- Stethoscope -->
  <circle cx="100" cy="100" r="15" fill="none" stroke="#2E7D32" stroke-width="2.5"/>
  <path d="M85 100c0-22 10-40 25-45" fill="none" stroke="#2E7D32" stroke-width="2.5"/>
  <path d="M115 100c0-22-10-40-25-45" fill="none" stroke="#2E7D32" stroke-width="2.5"/>
  <circle cx="100" cy="105" r="4" fill="#2E7D32"/>
  <!-- Banner -->
  <rect x="120" y="162" width="160" height="26" rx="13" fill="#2E7D32"/>
  <text x="200" y="180" text-anchor="middle" font-family="Plus Jakarta Sans,sans-serif" font-weight="700" font-size="11" fill="#FFF">20+ Fasilitas Kesehatan</text>
</svg>