<svg xmlns="http://www.w3.org/2000/svg" viewBox="0 0 400 240">
  <defs>
    <linearGradient id="bg" x1="0" y1="0" x2="1" y2="1"><stop offset="0%" stop-color="#FCE4EC"/><stop offset="100%" stop-color="#F8BBD0"/></linearGradient>
  </defs>
  <rect width="400" height="240" fill="url(#bg)" rx="12"/>
  <!-- Heart / Health -->
  <path d="M200 180c-50-40-80-65-80-95a35 35 0 0 1 60-25l20 20 20-20a35 35 0 0 1 60 25c0 30-30 55-80 95z" fill="#EC407A" opacity=".15" stroke="#AD1457" stroke-width="2"/>
  <!-- Cross -->
  <rect x="190" y="95" width="20" height="50" rx="3" fill="#AD1457"/>
  <rect x="178" y="107" width="44" height="20" rx="3" fill="#AD1457"/>
  <!-- Baby / Mother -->
  <circle cx="155" cy="85" r="14" fill="#FFF" stroke="#AD1457" stroke-width="2"/>
  <circle cx="155" cy="80" r="5" fill="#AD1457" opacity=".4"/>
  <path d="M145 99c0 0 4 20 10 20s10-20 10-20" fill="none" stroke="#AD1457" stroke-width="2"/>
  <!-- Trophy small -->
  <path d="M245 80h20v15c0 8-5 14-10 15-5-1-10-7-10-15V80z" fill="#FFD54F" stroke="#E65100" stroke-width="1.5"/>
  <text x="255" y="100" text-anchor="middle" font-family="Plus Jakarta Sans,sans-serif" font-weight="800" font-size="8" fill="#E65100">2</text>
  <!-- Banner -->
  <rect x="130" y="195" width="140" height="26" rx="13" fill="#AD1457"/>
  <text x="200" y="213" text-anchor="middle" font-family="Plus Jakarta Sans,sans-serif" font-weight="700" font-size="11" fill="#FFF">Posyandu Terintegrasi</text>
</svg>