<svg xmlns="http://www.w3.org/2000/svg" viewBox="0 0 400 240">
  <defs>
    <linearGradient id="bg" x1="0" y1="0" x2="1" y2="1"><stop offset="0%" stop-color="#FFF8E1"/><stop offset="100%" stop-color="#FFE0B2"/></linearGradient>
  </defs>
  <rect width="400" height="240" fill="url(#bg)" rx="12"/>
  <!-- Scale / Law symbol -->
  <circle cx="200" cy="105" r="50" fill="#E65100" opacity=".08"/>
  <line x1="200" y1="60" x2="200" y2="140" stroke="#5D4037" stroke-width="3"/>
  <line x1="160" y1="90" x2="240" y2="90" stroke="#5D4037" stroke-width="3"/>
  <circle cx="200" cy="60" r="8" fill="#5D4037"/>
  <!-- Left pan -->
  <path d="M150 95l10 30h0a15 15 0 0 0 0 0l-10-30z" fill="none"/>
  <line x1="160" y1="90" x2="150" y2="115" stroke="#5D4037" stroke-width="2"/>
  <line x1="160" y1="90" x2="170" y2="115" stroke="#5D4037" stroke-width="2"/>
  <path d="M148 115a12 6 0 0 0 24 0" fill="#FFB74D" stroke="#5D4037" stroke-width="2"/>
  <!-- Right pan -->
  <line x1="240" y1="90" x2="230" y2="115" stroke="#5D4037" stroke-width="2"/>
  <line x1="240" y1="90" x2="250" y2="115" stroke="#5D4037" stroke-width="2"/>
  <path d="M228 115a12 6 0 0 0 24 0" fill="#FFB74D" stroke="#5D4037" stroke-width="2"/>
  <!-- Base -->
  <rect x="187" y="140" width="26" height="8" rx="2" fill="#5D4037"/>
  <rect x="180" y="148" width="40" height="6" rx="3" fill="#5D4037"/>
  <!-- Book -->
  <rect x="175" y="170" width="50" height="34" rx="4" fill="#FFF" stroke="#5D4037" stroke-width="2"/>
  <line x1="200" y1="170" x2="200" y2="204" stroke="#5D4037" stroke-width="1.5"/>
  <text x="200" y="195" text-anchor="middle" font-family="Plus Jakarta Sans,sans-serif" font-weight="700" font-size="8" fill="#5D4037">HUKUM</text>
</svg>