<svg xmlns="http://www.w3.org/2000/svg" viewBox="0 0 400 240">
  <defs>
    <linearGradient id="bg" x1="0" y1="0" x2="1" y2="1"><stop offset="0%" stop-color="#E8EAF6"/><stop offset="100%" stop-color="#C5CAE9"/></linearGradient>
  </defs>
  <rect width="400" height="240" fill="url(#bg)" rx="12"/>
  <!-- Shield -->
  <path d="M200 55l50 20v45c0 35-22 55-50 70-28-15-50-35-50-70V75z" fill="#3F51B5" opacity=".12" stroke="#283593" stroke-width="2.5"/>
  <path d="M200 70l35 15v32c0 25-15 40-35 50-20-10-35-25-35-50V85z" fill="#FFF" stroke="#3F51B5" stroke-width="1.5"/>
  <!-- Checkmark -->
  <path d="M183 115l12 12 22-25" fill="none" stroke="#3F51B5" stroke-width="4" stroke-linecap="round" stroke-linejoin="round"/>
  <!-- People silhouettes -->
  <circle cx="140" cy="180" r="9" fill="#3F51B5" opacity=".5"/><rect x="133" y="191" width="14" height="18" rx="5" fill="#3F51B5" opacity=".5"/>
  <circle cx="165" cy="180" r="9" fill="#3F51B5" opacity=".5"/><rect x="158" y="191" width="14" height="18" rx="5" fill="#3F51B5" opacity=".5"/>
  <circle cx="200" cy="175" r="11" fill="#3F51B5" opacity=".7"/><rect x="191" y="188" width="18" height="22" rx="6" fill="#3F51B5" opacity=".7"/>
  <circle cx="235" cy="180" r="9" fill="#3F51B5" opacity=".5"/><rect x="228" y="191" width="14" height="18" rx="5" fill="#3F51B5" opacity=".5"/>
  <circle cx="260" cy="180" r="9" fill="#3F51B5" opacity=".5"/><rect x="253" y="191" width="14" height="18" rx="5" fill="#3F51B5" opacity=".5"/>
  <!-- Text -->
  <text x="200" y="228" text-anchor="middle" font-family="Plus Jakarta Sans,sans-serif" font-weight="700" font-size="11" fill="#283593">Kampung Tangguh Jaya</text>
</svg>